<svg width="1235" height="650" viewBox="0 0 1235 650" fill="none" xmlns="http://www.w3.org/2000/svg">
<g clip-path="url(#clip0_228_384)">
<path d="M0 0V650H1235V0H0Z" fill="#428BC1"/>
<mask id="mask0_228_384" style="mask-type:luminance" maskUnits="userSpaceOnUse" x="0" y="0" width="1235" height="650">
<path d="M0.0234375 0.0195312V649.978H1235V0.0195312H0.0234375Z" fill="white"/>
</mask>
<g mask="url(#mask0_228_384)">
<path d="M0.0234375 0.0195312L1235 649.978ZM1235 0.0195312L0.0234375 649.978Z" fill="white"/>
<path d="M0.0234375 0.0195312L1235 649.978M1235 0.0195312L0.0234375 649.978" stroke="white" stroke-width="138.796"/>
</g>
<mask id="mask1_228_384" style="mask-type:luminance" maskUnits="userSpaceOnUse" x="0" y="0" width="1235" height="650">
<path d="M617.536 325H1235V650L617.536 325ZM617.536 325V650H0L617.536 325ZM617.536 325H0V0L617.536 325ZM617.536 325V0H1235L617.536 325Z" fill="white"/>
</mask>
<g mask="url(#mask1_228_384)">
<path d="M0 0L1235 650ZM1235 0L0 650Z" fill="black"/>
<path d="M0 0L1235 650M1235 0L0 650" stroke="#ED4C5C" stroke-width="88.9719"/>
</g>
<path d="M0.0234375 216.672H494.014V0.0195312H741.009V216.672H1235V433.325H741.009V649.978H494.014V433.325H0.0234375V216.672Z" fill="white"/>
<path d="M0.0234375 260.003H543.413V0.0195312H691.61V260.003H1235V389.995H691.61V649.978H543.413V389.995H0.0234375V260.003Z" fill="#ED4C5C"/>
<mask id="mask2_228_384" style="mask-type:luminance" maskUnits="userSpaceOnUse" x="0" y="0" width="1235" height="650">
<path d="M0 0V649.991L1235 6.66658e-05L0 0Z" fill="white"/>
</mask>
<g mask="url(#mask2_228_384)">
<path d="M0 0H1235V650.002H0" fill="#ED4C5C"/>
<path d="M0 75H1235ZM1235 175H0ZM0 275.001H1235ZM1235 375.001H0ZM0 475.001H1235ZM1235 575.001H0Z" fill="black"/>
<path d="M0 75H1235M1235 175H0M0 275.001H1235M1235 375.001H0M0 475.001H1235M1235 575.001H0" stroke="white" stroke-width="50"/>
<path d="M0 0H494.001V350.001H0" fill="#428BC1"/>
<path d="M41.1696 15L52.9253 51.1804L22.1484 28.8197H60.1908L29.4139 51.1804L41.1696 15Z" fill="white"/>
<path d="M41.1696 85L52.9253 121.18L22.1484 98.8197H60.1908L29.4139 121.18L41.1696 85Z" fill="white"/>
<path d="M41.1696 155L52.9253 191.18L22.1484 168.82H60.1908L29.4139 191.18L41.1696 155Z" fill="white"/>
<path d="M41.1696 225L52.9253 261.18L22.1484 238.82H60.1908L29.4139 261.18L41.1696 225Z" fill="white"/>
<path d="M41.1696 295L52.9253 331.18L22.1484 308.82H60.1908L29.4139 331.18L41.1696 295Z" fill="white"/>
<path d="M82.3337 50L94.0894 86.1804L63.3125 63.8197H101.355L70.5779 86.1804L82.3337 50Z" fill="white"/>
<path d="M82.3337 120L94.0894 156.18L63.3125 133.82H101.355L70.5779 156.18L82.3337 120Z" fill="white"/>
<path d="M82.3337 190L94.0894 226.18L63.3125 203.82H101.355L70.5779 226.18L82.3337 190Z" fill="white"/>
<path d="M82.3337 260L94.0894 296.18L63.3125 273.82H101.355L70.5779 296.18L82.3337 260Z" fill="white"/>
<path d="M123.506 15L135.261 51.1804L104.484 28.8197H142.527L111.75 51.1804L123.506 15Z" fill="white"/>
<path d="M123.506 85L135.261 121.18L104.484 98.8197H142.527L111.75 121.18L123.506 85Z" fill="white"/>
<path d="M123.506 155L135.261 191.18L104.484 168.82H142.527L111.75 191.18L123.506 155Z" fill="white"/>
<path d="M123.506 225L135.261 261.18L104.484 238.82H142.527L111.75 261.18L123.506 225Z" fill="white"/>
<path d="M123.506 295L135.261 331.18L104.484 308.82H142.527L111.75 331.18L123.506 295Z" fill="white"/>
<path d="M164.67 50L176.425 86.1804L145.648 63.8197H183.691L152.914 86.1804L164.67 50Z" fill="white"/>
<path d="M164.67 120L176.425 156.18L145.648 133.82H183.691L152.914 156.18L164.67 120Z" fill="white"/>
<path d="M164.67 190L176.425 226.18L145.648 203.82H183.691L152.914 226.18L164.67 190Z" fill="white"/>
<path d="M164.67 260L176.425 296.18L145.648 273.82H183.691L152.914 296.18L164.67 260Z" fill="white"/>
<path d="M205.834 15L217.589 51.1804L186.812 28.8197H224.855L194.078 51.1804L205.834 15Z" fill="white"/>
<path d="M205.834 85L217.589 121.18L186.812 98.8197H224.855L194.078 121.18L205.834 85Z" fill="white"/>
<path d="M205.834 155L217.589 191.18L186.812 168.82H224.855L194.078 191.18L205.834 155Z" fill="white"/>
<path d="M205.834 225L217.589 261.18L186.812 238.82H224.855L194.078 261.18L205.834 225Z" fill="white"/>
<path d="M205.834 295L217.589 331.18L186.812 308.82H224.855L194.078 331.18L205.834 295Z" fill="white"/>
<path d="M246.998 50L258.753 86.1804L227.977 63.8197H266.019L235.242 86.1804L246.998 50Z" fill="white"/>
<path d="M246.998 120L258.753 156.18L227.977 133.82H266.019L235.242 156.18L246.998 120Z" fill="white"/>
<path d="M246.998 190L258.753 226.18L227.977 203.82H266.019L235.242 226.18L246.998 190Z" fill="white"/>
<path d="M246.998 260L258.753 296.18L227.977 273.82H266.019L235.242 296.18L246.998 260Z" fill="white"/>
<path d="M288.17 15L299.925 51.1804L269.148 28.8197H307.191L276.414 51.1804L288.17 15Z" fill="white"/>
<path d="M288.17 85L299.925 121.18L269.148 98.8197H307.191L276.414 121.18L288.17 85Z" fill="white"/>
<path d="M288.17 155L299.925 191.18L269.148 168.82H307.191L276.414 191.18L288.17 155Z" fill="white"/>
<path d="M288.17 225L299.925 261.18L269.148 238.82H307.191L276.414 261.18L288.17 225Z" fill="white"/>
<path d="M288.17 295L299.925 331.18L269.148 308.82H307.191L276.414 331.18L288.17 295Z" fill="white"/>
<path d="M329.334 50L341.089 86.1804L310.312 63.8197H348.355L317.578 86.1804L329.334 50Z" fill="white"/>
<path d="M329.334 120L341.089 156.18L310.312 133.82H348.355L317.578 156.18L329.334 120Z" fill="white"/>
<path d="M329.334 190L341.089 226.18L310.312 203.82H348.355L317.578 226.18L329.334 190Z" fill="white"/>
<path d="M329.334 260L341.089 296.18L310.312 273.82H348.355L317.578 296.18L329.334 260Z" fill="white"/>
<path d="M370.506 15L382.261 51.1804L351.484 28.8197H389.527L358.75 51.1804L370.506 15Z" fill="white"/>
<path d="M370.506 85L382.261 121.18L351.484 98.8197H389.527L358.75 121.18L370.506 85Z" fill="white"/>
<path d="M370.506 155L382.261 191.18L351.484 168.82H389.527L358.75 191.18L370.506 155Z" fill="white"/>
<path d="M370.506 225L382.261 261.18L351.484 238.82H389.527L358.75 261.18L370.506 225Z" fill="white"/>
<path d="M370.506 295L382.261 331.18L351.484 308.82H389.527L358.75 331.18L370.506 295Z" fill="white"/>
<path d="M411.67 50L423.425 86.1804L392.648 63.8197H430.691L399.914 86.1804L411.67 50Z" fill="white"/>
<path d="M411.67 120L423.425 156.18L392.648 133.82H430.691L399.914 156.18L411.67 120Z" fill="white"/>
<path d="M411.67 190L423.425 226.18L392.648 203.82H430.691L399.914 226.18L411.67 190Z" fill="white"/>
<path d="M411.67 260L423.425 296.18L392.648 273.82H430.691L399.914 296.18L411.67 260Z" fill="white"/>
<path d="M452.834 15L464.589 51.1804L433.812 28.8197H471.855L441.078 51.1804L452.834 15Z" fill="white"/>
<path d="M452.834 85L464.589 121.18L433.812 98.8197H471.855L441.078 121.18L452.834 85Z" fill="white"/>
<path d="M452.834 155L464.589 191.18L433.812 168.82H471.855L441.078 191.18L452.834 155Z" fill="white"/>
<path d="M452.834 225L464.589 261.18L433.812 238.82H471.855L441.078 261.18L452.834 225Z" fill="white"/>
<path d="M452.834 295L464.589 331.18L433.812 308.82H471.855L441.078 331.18L452.834 295Z" fill="white"/>
</g>
</g>
<defs>
<clipPath id="clip0_228_384">
<rect width="1235" height="650" fill="white"/>
</clipPath>
</defs>
</svg>
